<?xml version="1.0" encoding="UTF-8" standalone="no"?>
<!DOCTYPE svg PUBLIC "-//W3C//DTD SVG 1.1//EN"
 "http://www.w3.org/Graphics/SVG/1.1/DTD/svg11.dtd">
<!-- Generated by graphviz version 2.43.0 (0)
 -->
<!-- Title: G Pages: 1 -->
<svg width="652pt" height="906pt"
 viewBox="0.00 0.00 652.00 906.00" xmlns="http://www.w3.org/2000/svg" xmlns:xlink="http://www.w3.org/1999/xlink">
<g id="graph0" class="graph" transform="scale(1 1) rotate(0) translate(4 902)">
<title>G</title>
<polygon fill="white" stroke="transparent" points="-4,4 -4,-902 648,-902 648,4 -4,4"/>
<g id="clust1" class="cluster">
<title>cluster_Global</title>
<path fill="none" stroke="gray" d="M20,-8C20,-8 624,-8 624,-8 630,-8 636,-14 636,-20 636,-20 636,-878 636,-878 636,-884 630,-890 624,-890 624,-890 20,-890 20,-890 14,-890 8,-884 8,-878 8,-878 8,-20 8,-20 8,-14 14,-8 20,-8"/>
<text text-anchor="middle" x="322" y="-877.2" font-family="Times,serif" font-size="11.00" fill="gray">Global</text>
</g>
<!-- \\Model -->
<g id="node1" class="node">
<title>\\Model</title>
<polygon fill="none" stroke="black" points="85,-133 31,-133 31,-97 85,-97 85,-133"/>
<text text-anchor="middle" x="58" y="-112.2" font-family="Courier,monospace" font-size="11.00">Model</text>
</g>
<!-- \\EvoError -->
<g id="node2" class="node">
<title>\\EvoError</title>
<polygon fill="none" stroke="black" points="571,-862 500,-862 500,-826 571,-826 571,-862"/>
<text text-anchor="middle" x="535.5" y="-841.2" font-family="Courier,monospace" font-size="11.00">EvoError</text>
</g>
<!-- \\EvoPhase -->
<g id="node3" class="node">
<title>\\EvoPhase</title>
<polygon fill="none" stroke="black" points="571,-808 500,-808 500,-772 571,-772 571,-808"/>
<text text-anchor="middle" x="535.5" y="-787.2" font-family="Courier,monospace" font-size="11.00">EvoPhase</text>
</g>
<!-- \\EvoController -->
<g id="node4" class="node">
<title>\\EvoController</title>
<polygon fill="none" stroke="black" points="323.5,-700 219.5,-700 219.5,-664 323.5,-664 323.5,-700"/>
<text text-anchor="middle" x="271.5" y="-679.2" font-family="Courier,monospace" font-size="11.00">EvoController</text>
</g>
<!-- \\AreaRecord -->
<g id="node5" class="node">
<title>\\AreaRecord</title>
<polygon fill="none" stroke="black" points="577.5,-754 493.5,-754 493.5,-718 577.5,-718 577.5,-754"/>
<text text-anchor="middle" x="535.5" y="-733.2" font-family="Courier,monospace" font-size="11.00">AreaRecord</text>
</g>
<!-- \\AreaModel -->
<g id="node6" class="node">
<title>\\AreaModel</title>
<polygon fill="none" stroke="black" points="310,-52 233,-52 233,-16 310,-16 310,-52"/>
<text text-anchor="middle" x="271.5" y="-31.2" font-family="Courier,monospace" font-size="11.00">AreaModel</text>
</g>
<!-- \\AreaModel&#45;&gt;\\Model -->
<g id="edge1" class="edge">
<title>\\AreaModel&#45;&gt;\\Model</title>
<path fill="none" stroke="black" d="M232.58,-42.71C214.07,-47.39 191.61,-53.69 172,-61 145.26,-70.96 116.23,-84.91 94.3,-96.13"/>
<polygon fill="none" stroke="black" points="92.63,-93.05 85.36,-100.75 95.85,-99.27 92.63,-93.05"/>
</g>
<!-- \\Controller -->
<g id="node7" class="node">
<title>\\Controller</title>
<polygon fill="none" stroke="black" points="100,-511 16,-511 16,-475 100,-475 100,-511"/>
<text text-anchor="middle" x="58" y="-490.2" font-family="Courier,monospace" font-size="11.00">Controller</text>
</g>
<!-- \\ProductController -->
<g id="node8" class="node">
<title>\\ProductController</title>
<polygon fill="none" stroke="black" points="337,-430 206,-430 206,-394 337,-394 337,-430"/>
<text text-anchor="middle" x="271.5" y="-409.2" font-family="Courier,monospace" font-size="11.00">ProductController</text>
</g>
<!-- \\ProductController&#45;&gt;\\Controller -->
<g id="edge2" class="edge">
<title>\\ProductController&#45;&gt;\\Controller</title>
<path fill="none" stroke="black" d="M205.86,-427.94C194.47,-431.25 182.8,-434.98 172,-439 148.32,-447.82 122.86,-459.76 102.11,-470.17"/>
<polygon fill="none" stroke="black" points="100.26,-467.18 92.93,-474.83 103.43,-473.42 100.26,-467.18"/>
</g>
<!-- \\PictogramSablonData -->
<g id="node9" class="node">
<title>\\PictogramSablonData</title>
<polygon fill="none" stroke="black" points="608,-700 463,-700 463,-664 608,-664 608,-700"/>
<text text-anchor="middle" x="535.5" y="-679.2" font-family="Courier,monospace" font-size="11.00">PictogramSablonData</text>
</g>
<!-- EvoData -->
<g id="node27" class="node">
<title>EvoData</title>
<ellipse fill="none" stroke="black" cx="271.5" cy="-736" rx="50.09" ry="18"/>
<text text-anchor="middle" x="271.5" y="-732.3" font-family="Times,serif" font-size="14.00" fill="gray">EvoData</text>
</g>
<!-- \\PictogramSablonData&#45;&gt;EvoData -->
<g id="edge3" class="edge">
<title>\\PictogramSablonData&#45;&gt;EvoData</title>
<path fill="none" stroke="black" d="M462.91,-696.76C419.42,-705.72 364.86,-716.96 325.3,-725.12"/>
<polygon fill="none" stroke="black" points="324.41,-721.73 315.32,-727.17 325.82,-728.58 324.41,-721.73"/>
</g>
<!-- \\PictogramsablonController -->
<g id="node10" class="node">
<title>\\PictogramsablonController</title>
<polygon fill="none" stroke="black" points="628,-646 443,-646 443,-610 628,-610 628,-646"/>
<text text-anchor="middle" x="535.5" y="-625.2" font-family="Courier,monospace" font-size="11.00">PictogramsablonController</text>
</g>
<!-- \\PictogramsablonController&#45;&gt;\\EvoController -->
<g id="edge4" class="edge">
<title>\\PictogramsablonController&#45;&gt;\\EvoController</title>
<path fill="none" stroke="black" d="M446.89,-646.06C409.82,-653.7 367.52,-662.42 333.86,-669.35"/>
<polygon fill="none" stroke="black" points="332.8,-666 323.71,-671.45 334.21,-672.85 332.8,-666"/>
</g>
<!-- \\Cmm -->
<g id="node11" class="node">
<title>\\Cmm</title>
<polygon fill="none" stroke="black" points="562.5,-552 508.5,-552 508.5,-516 562.5,-516 562.5,-552"/>
<text text-anchor="middle" x="535.5" y="-531.2" font-family="Courier,monospace" font-size="11.00">Cmm</text>
</g>
<!-- \\ErrorController -->
<g id="node12" class="node">
<title>\\ErrorController</title>
<polygon fill="none" stroke="black" points="594.5,-417 476.5,-417 476.5,-381 594.5,-381 594.5,-417"/>
<text text-anchor="middle" x="535.5" y="-396.2" font-family="Courier,monospace" font-size="11.00">ErrorController</text>
</g>
<!-- \\ProgressindicatorController -->
<g id="node13" class="node">
<title>\\ProgressindicatorController</title>
<polygon fill="none" stroke="black" points="371,-376 172,-376 172,-340 371,-340 371,-376"/>
<text text-anchor="middle" x="271.5" y="-355.2" font-family="Courier,monospace" font-size="11.00">ProgressindicatorController</text>
</g>
<!-- \\ProgressindicatorController&#45;&gt;\\Controller -->
<g id="edge5" class="edge">
<title>\\ProgressindicatorController&#45;&gt;\\Controller</title>
<path fill="none" stroke="black" d="M190.88,-376.07C184.32,-378.67 177.94,-381.64 172,-385 134.66,-406.14 100.33,-442.37 79.55,-466.98"/>
<polygon fill="none" stroke="black" points="76.72,-464.91 73.03,-474.84 82.11,-469.38 76.72,-464.91"/>
</g>
<!-- \\CsvimportController -->
<g id="node14" class="node">
<title>\\CsvimportController</title>
<polygon fill="none" stroke="black" points="344,-322 199,-322 199,-286 344,-286 344,-322"/>
<text text-anchor="middle" x="271.5" y="-301.2" font-family="Courier,monospace" font-size="11.00">CsvimportController</text>
</g>
<!-- \\CsvimportController&#45;&gt;\\Controller -->
<g id="edge6" class="edge">
<title>\\CsvimportController&#45;&gt;\\Controller</title>
<path fill="none" stroke="black" d="M198.93,-317.2C189.39,-320.76 180.11,-325.27 172,-331 122.83,-365.7 87.97,-428.96 70.91,-465.31"/>
<polygon fill="none" stroke="black" points="67.54,-464.26 66.57,-474.81 73.91,-467.17 67.54,-464.26"/>
</g>
<!-- \\AreaCsvImport -->
<g id="node15" class="node">
<title>\\AreaCsvImport</title>
<polygon fill="none" stroke="black" points="587.5,-322 483.5,-322 483.5,-286 587.5,-286 587.5,-322"/>
<text text-anchor="middle" x="535.5" y="-301.2" font-family="Courier,monospace" font-size="11.00">AreaCsvImport</text>
</g>
<!-- \\AreaCsvImport&#45;&gt;\\CsvimportController -->
<g id="edge7" class="edge">
<title>\\AreaCsvImport&#45;&gt;\\CsvimportController</title>
<path fill="none" stroke="black" d="M483.36,-304C446.77,-304 396.73,-304 354.58,-304"/>
<polygon fill="none" stroke="black" points="354.32,-300.5 344.32,-304 354.32,-307.5 354.32,-300.5"/>
</g>
<!-- \\AreaController -->
<g id="node16" class="node">
<title>\\AreaController</title>
<polygon fill="none" stroke="black" points="327,-268 216,-268 216,-232 327,-232 327,-268"/>
<text text-anchor="middle" x="271.5" y="-247.2" font-family="Courier,monospace" font-size="11.00">AreaController</text>
</g>
<!-- \\AreaController&#45;&gt;\\Controller -->
<g id="edge8" class="edge">
<title>\\AreaController&#45;&gt;\\Controller</title>
<path fill="none" stroke="black" d="M215.89,-256.64C200.47,-260.61 184.5,-266.93 172,-277 110.54,-326.51 78.66,-418.5 65.88,-464.81"/>
<polygon fill="none" stroke="black" points="62.42,-464.2 63.23,-474.76 69.18,-466 62.42,-464.2"/>
</g>
<!-- \\MapController -->
<g id="node17" class="node">
<title>\\MapController</title>
<polygon fill="none" stroke="black" points="323.5,-862 219.5,-862 219.5,-826 323.5,-826 323.5,-862"/>
<text text-anchor="middle" x="271.5" y="-841.2" font-family="Courier,monospace" font-size="11.00">MapController</text>
</g>
<!-- \\MapController&#45;&gt;\\Controller -->
<g id="edge9" class="edge">
<title>\\MapController&#45;&gt;\\Controller</title>
<path fill="none" stroke="black" d="M219.27,-839.51C202.46,-835.74 184.83,-828.98 172,-817 85.14,-735.86 65.04,-584.39 60.39,-521.5"/>
<polygon fill="none" stroke="black" points="63.86,-520.92 59.71,-511.17 56.87,-521.38 63.86,-520.92"/>
</g>
<!-- \\EvoModel -->
<g id="node18" class="node">
<title>\\EvoModel</title>
<polygon fill="none" stroke="black" points="307,-160 236,-160 236,-124 307,-124 307,-160"/>
<text text-anchor="middle" x="271.5" y="-139.2" font-family="Courier,monospace" font-size="11.00">EvoModel</text>
</g>
<!-- \\EvoModel&#45;&gt;\\Model -->
<g id="edge10" class="edge">
<title>\\EvoModel&#45;&gt;\\Model</title>
<path fill="none" stroke="black" d="M235.58,-137.54C196.8,-132.59 134.52,-124.64 95.23,-119.62"/>
<polygon fill="none" stroke="black" points="95.64,-116.15 85.28,-118.35 94.76,-123.09 95.64,-116.15"/>
</g>
<!-- \\PictogramsablonModel -->
<g id="node19" class="node">
<title>\\PictogramsablonModel</title>
<polygon fill="none" stroke="black" points="347.5,-214 195.5,-214 195.5,-178 347.5,-178 347.5,-214"/>
<text text-anchor="middle" x="271.5" y="-193.2" font-family="Courier,monospace" font-size="11.00">PictogramsablonModel</text>
</g>
<!-- \\PictogramsablonModel&#45;&gt;\\Model -->
<g id="edge11" class="edge">
<title>\\PictogramsablonModel&#45;&gt;\\Model</title>
<path fill="none" stroke="black" d="M198.74,-177.94C189.66,-175.19 180.56,-172.19 172,-169 145.26,-159.04 116.23,-145.09 94.3,-133.87"/>
<polygon fill="none" stroke="black" points="95.85,-130.73 85.36,-129.25 92.63,-136.95 95.85,-130.73"/>
</g>
<!-- \\AgentController -->
<g id="node20" class="node">
<title>\\AgentController</title>
<polygon fill="none" stroke="black" points="330.5,-808 212.5,-808 212.5,-772 330.5,-772 330.5,-808"/>
<text text-anchor="middle" x="271.5" y="-787.2" font-family="Courier,monospace" font-size="11.00">AgentController</text>
</g>
<!-- \\AgentController&#45;&gt;\\Controller -->
<g id="edge12" class="edge">
<title>\\AgentController&#45;&gt;\\Controller</title>
<path fill="none" stroke="black" d="M212.26,-783.2C197.81,-779.19 183.25,-772.89 172,-763 97.93,-697.9 71.22,-576.35 62.64,-521.34"/>
<polygon fill="none" stroke="black" points="66.07,-520.64 61.15,-511.26 59.15,-521.66 66.07,-520.64"/>
</g>
<!-- \\EvoEventLogModel -->
<g id="node21" class="node">
<title>\\EvoEventLogModel</title>
<polygon fill="none" stroke="black" points="598,-160 473,-160 473,-124 598,-124 598,-160"/>
<text text-anchor="middle" x="535.5" y="-139.2" font-family="Courier,monospace" font-size="11.00">EvoEventLogModel</text>
</g>
<!-- \\EvoEventLogModel&#45;&gt;\\EvoModel -->
<g id="edge13" class="edge">
<title>\\EvoEventLogModel&#45;&gt;\\EvoModel</title>
<path fill="none" stroke="black" d="M472.74,-142C425.08,-142 360.26,-142 317.45,-142"/>
<polygon fill="none" stroke="black" points="317.32,-138.5 307.32,-142 317.32,-145.5 317.32,-138.5"/>
</g>
<!-- \\CategoryController -->
<g id="node22" class="node">
<title>\\CategoryController</title>
<polygon fill="none" stroke="black" points="340.5,-646 202.5,-646 202.5,-610 340.5,-610 340.5,-646"/>
<text text-anchor="middle" x="271.5" y="-625.2" font-family="Courier,monospace" font-size="11.00">CategoryController</text>
</g>
<!-- \\CategoryController&#45;&gt;\\Controller -->
<g id="edge14" class="edge">
<title>\\CategoryController&#45;&gt;\\Controller</title>
<path fill="none" stroke="black" d="M202.5,-614.14C191.93,-610.65 181.41,-606.33 172,-601 134.66,-579.86 100.33,-543.63 79.55,-519.02"/>
<polygon fill="none" stroke="black" points="82.11,-516.62 73.03,-511.16 76.72,-521.09 82.11,-516.62"/>
</g>
<!-- \\MapModel -->
<g id="node23" class="node">
<title>\\MapModel</title>
<polygon fill="none" stroke="black" points="307,-106 236,-106 236,-70 307,-70 307,-106"/>
<text text-anchor="middle" x="271.5" y="-85.2" font-family="Courier,monospace" font-size="11.00">MapModel</text>
</g>
<!-- \\MapModel&#45;&gt;\\Model -->
<g id="edge15" class="edge">
<title>\\MapModel&#45;&gt;\\Model</title>
<path fill="none" stroke="black" d="M235.58,-92.46C196.8,-97.41 134.52,-105.36 95.23,-110.38"/>
<polygon fill="none" stroke="black" points="94.76,-106.91 85.28,-111.65 95.64,-113.85 94.76,-106.91"/>
</g>
<!-- \\SaleController -->
<g id="node24" class="node">
<title>\\SaleController</title>
<polygon fill="none" stroke="black" points="327,-592 216,-592 216,-556 327,-556 327,-592"/>
<text text-anchor="middle" x="271.5" y="-571.2" font-family="Courier,monospace" font-size="11.00">SaleController</text>
</g>
<!-- \\SaleController&#45;&gt;\\Controller -->
<g id="edge16" class="edge">
<title>\\SaleController&#45;&gt;\\Controller</title>
<path fill="none" stroke="black" d="M215.76,-560.86C201.36,-556.9 185.96,-552.2 172,-547 148.32,-538.18 122.86,-526.24 102.11,-515.83"/>
<polygon fill="none" stroke="black" points="103.43,-512.58 92.93,-511.17 100.26,-518.82 103.43,-512.58"/>
</g>
<!-- \\AdminController -->
<g id="node25" class="node">
<title>\\AdminController</title>
<polygon fill="none" stroke="black" points="330.5,-538 212.5,-538 212.5,-502 330.5,-502 330.5,-538"/>
<text text-anchor="middle" x="271.5" y="-517.2" font-family="Courier,monospace" font-size="11.00">AdminController</text>
</g>
<!-- \\AdminController&#45;&gt;\\Controller -->
<g id="edge17" class="edge">
<title>\\AdminController&#45;&gt;\\Controller</title>
<path fill="none" stroke="black" d="M212.43,-512.59C180.45,-508.5 141.13,-503.48 110.3,-499.55"/>
<polygon fill="none" stroke="black" points="110.55,-496.05 100.19,-498.26 109.66,-503 110.55,-496.05"/>
</g>
<!-- \\DistributorController -->
<g id="node26" class="node">
<title>\\DistributorController</title>
<polygon fill="none" stroke="black" points="350.5,-484 192.5,-484 192.5,-448 350.5,-448 350.5,-484"/>
<text text-anchor="middle" x="271.5" y="-463.2" font-family="Courier,monospace" font-size="11.00">DistributorController</text>
</g>
<!-- \\DistributorController&#45;&gt;\\Controller -->
<g id="edge18" class="edge">
<title>\\DistributorController&#45;&gt;\\Controller</title>
<path fill="none" stroke="black" d="M192.35,-475.98C164.96,-479.47 134.91,-483.31 110.29,-486.45"/>
<polygon fill="none" stroke="black" points="109.57,-483.02 100.09,-487.75 110.45,-489.96 109.57,-483.02"/>
</g>
</g>
</svg>
